# xmcd CD database file
#
# Track frame offsets:
#	150
#	16184
#	32253
#	46400
#	62513
#	79679
#	93454
#	111027
#	125763
#	141635
#	153513
#	166415
#	183047
#	196057
#	212542
#	225753
#
# Disc length: 3179 seconds
#
# Revision: 3
# Processed by: cddbd v1.5.2PL0 Copyright (c) Steve Scherf et al.
# Submitted via: CDex 1.51
#
DISCID=c20c6910
DTITLE=Linda Feller - COUNTRY-HITS VOL.1 [LC12677]
DYEAR=1996
DGENRE=Country
TTITLE0=And're Muetter haben auch ein schoenes Kind
TTITLE1=Engel lieben meist die Falschen
TTITLE2=Schau in meine Augen
TTITLE3=Mitten ins Herz
TTITLE4=Du bist das Salz in meiner Suppe
TTITLE5=Minuten im Fieber
TTITLE6=Es faellt mir schwer dir zu glauben
TTITLE7=Sonnenkinder sind wir alle
TTITLE8=Spiel mir noch einmal das Lied
TTITLE9=Es gibt Maenner soviele Maenner
TTITLE10=Zwei Faeuste und ein Whisky
TTITLE11=Das soll alles jetzt vorbei sein
TTITLE12=Soviel Zeit muss sein
TTITLE13=Warum kann ich nicht vergessen
TTITLE14=Ich weiss genau was ich will
TTITLE15=2x ist 1x zu viel
EXTD=YEAR: 1996
EXTT0=
EXTT1=
EXTT2=
EXTT3=
EXTT4=
EXTT5=
EXTT6=
EXTT7=
EXTT8=
EXTT9=
EXTT10=
EXTT11=
EXTT12=
EXTT13=
EXTT14=
EXTT15=
PLAYORDER=
